Coordinates
version=1
nRows=17
nColumns=40
inDegrees=yes

Units are S.I. units (second, meters, Newtons, ...)
If the header above contains a line with 'inDegrees', this indicates whether rotational values are in degrees (yes) or radians (no).

endheader
time	pelvis_tilt	pelvis_list	pelvis_rotation	pelvis_tx	pelvis_ty	pelvis_tz	hip_flexion_r	hip_adduction_r	hip_rotation_r	knee_angle_r	knee_angle_r_beta	ankle_angle_r	subtalar_angle_r	mtp_angle_r	hip_flexion_l	hip_adduction_l	hip_rotation_l	knee_angle_l	knee_angle_l_beta	ankle_angle_l	subtalar_angle_l	mtp_angle_l	lumbar_extension	lumbar_bending	lumbar_rotation	arm_flex_r	arm_add_r	arm_rot_r	elbow_flex_r	pro_sup_r	wrist_flex_r	wrist_dev_r	arm_flex_l	arm_add_l	arm_rot_l	elbow_flex_l	pro_sup_l	wrist_flex_l	wrist_dev_l
      1.09000000	      1.10645643	     -5.16477157	     88.52700015	      0.24013828	      0.92483302	      0.54909246	      6.72009962	      4.85059176	      4.22485392	      5.25753118	      0.09176123	      7.02241015	      0.00000000	      0.00000000	     31.97737004	     -8.90111450	     -6.30986712	     69.83270725	      1.21881067	      3.89128114	      0.00000000	      0.00000000	     -2.87439703	      0.75896254	     -2.22992297	      0.00000000	      0.00000000	      0.00000000	      0.00000000	      0.00000000	      0.00000000	      0.00000000	      0.00000000	      0.00000000	      0.00000000	      0.00000000	      0.00000000	      0.00000000	      0.00000000
      1.10000000	      1.07500462	     -5.54466061	     88.16867443	      0.24074663	      0.92483388	      0.53743925	      5.85438648	      4.81714459	      3.87509012	      4.42511884	      0.07723289	      7.29423374	      0.00000000	      0.00000000	     33.69061046	     -8.99235149	     -6.46831087	     68.01983164	      1.18717002	      4.21073097	      0.00000000	      0.00000000	     -2.54047487	      0.75031777	     -1.68291738	      0.00000000	     -0.00000000	     -0.00000000	      0.00000000	      0.00000000	      0.00000000	     -0.00000000	      0.00000000	      0.00000000	     -0.00000000	      0.00000000	      0.00000000	      0.00000000	     -0.00000000
      1.11000000	      0.63082125	     -5.20711527	     87.74936699	      0.24115473	      0.92581276	      0.52499674	      3.65818243	      4.28552796	      5.01916130	      2.57680653	      0.04497376	      7.10495936	      0.00000000	      0.00000000	     34.26060481	     -8.57141084	     -6.81827213	     65.68868424	      1.14648382	      4.65603767	      0.00000000	      0.00000000	     -3.01278209	      0.20526711	     -1.02621521	      0.00000000	     -0.00000000	     -0.00000000	      0.00000000	      0.00000000	     -0.00000000	      0.00000000	     -0.00000000	      0.00000000	      0.00000000	      0.00000000	      0.00000000	      0.00000000	      0.00000000
      1.12000000	      0.45947983	     -5.32767880	     87.32094119	      0.24163857	      0.92554356	      0.51302829	      2.33451865	      4.05133474	      5.50042675	      1.42303049	      0.02483657	      7.23351828	      0.00000000	      0.00000000	     35.31815819	     -8.47187101	     -7.00896508	     63.18508100	      1.10278770	      4.84215548	      0.00000000	      0.00000000	     -2.98048346	      0.01925978	     -0.43876618	      0.00000000	      0.00000000	      0.00000000	      0.00000000	      0.00000000	      0.00000000	      0.00000000	      0.00000000	      0.00000000	      0.00000000	      0.00000000	      0.00000000	      0.00000000	      0.00000000
      1.13000000	      0.31624344	     -5.40216206	     86.87551361	      0.24211811	      0.92497779	      0.50098193	      0.98764183	      3.82225618	      5.97921099	      0.32498447	      0.00567205	      7.42005697	      0.00000000	      0.00000000	     36.17809385	     -8.40578211	     -7.19082449	     60.39371215	      1.05406912	      4.87085256	      0.00000000	      0.00000000	     -3.00559346	     -0.13508468	      0.17396664	      0.00000000	      0.00000000	      0.00000000	      0.00000000	      0.00000000	      0.00000000	      0.00000000	      0.00000000	      0.00000000	      0.00000000	      0.00000000	      0.00000000	      0.00000000	      0.00000000
      1.14000000	      0.38856689	     -5.72139987	     86.55025239	      0.24239118	      0.92351889	      0.48914399	      0.02508490	      3.83048252	      6.12932394	     -0.53615332	     -0.00935764	      7.74684651	      0.00000000	      0.00000000	     37.30669013	     -8.48439246	     -7.09814800	     57.50460695	      1.00364473	      4.90622170	      0.00000000	      0.00000000	     -2.78727477	     -0.02128974	      0.79948881	      0.00000000	      0.00000000	      0.00000000	      0.00000000	      0.00000000	      0.00000000	      0.00000000	      0.00000000	      0.00000000	      0.00000000	      0.00000000	      0.00000000	      0.00000000	      0.00000000
      1.15000000	      0.16748282	     -5.42105905	     85.97399962	      0.24301111	      0.92299362	      0.47657799	     -1.74145353	      3.44789674	      6.85401065	     -1.60799585	     -0.02806482	      7.89005016	      0.00000000	      0.00000000	     37.27656058	     -8.39894328	     -7.47521773	     53.92356244	      0.94114371	      4.50453845	      0.00000000	      0.00000000	     -3.19861334	     -0.32193850	      1.44631156	      0.00000000	      0.00000000	      0.00000000	      0.00000000	      0.00000000	      0.00000000	      0.00000000	      0.00000000	      0.00000000	      0.00000000	      0.00000000	      0.00000000	      0.00000000	      0.00000000
      1.16000000	      0.18985100	     -5.51143363	     85.54469399	      0.24335392	      0.92135670	      0.46432563	     -2.98543850	      3.33907623	      7.38082420	     -2.47742082	     -0.04323915	      8.23505923	      0.00000000	      0.00000000	     37.72595228	     -8.47496169	     -7.53672578	     50.31396617	      0.87814437	      4.01615657	      0.00000000	      0.00000000	     -3.20771625	     -0.28732858	      1.97521111	      0.00000000	      0.00000000	      0.00000000	      0.00000000	      0.00000000	      0.00000000	      0.00000000	      0.00000000	      0.00000000	      0.00000000	      0.00000000	      0.00000000	      0.00000000	      0.00000000
      1.17000000	      0.25064241	     -5.54678946	     85.13857812	      0.24361062	      0.91951816	      0.45195144	     -4.27850228	      3.24720758	      7.84154704	     -3.29967153	     -0.05759013	      8.58753648	      0.00000000	      0.00000000	     37.96585239	     -8.55183259	     -7.53887624	     46.44706177	      0.81065416	      3.43841079	      0.00000000	      0.00000000	     -3.28359273	     -0.21264489	      2.51831732	      0.00000000	      0.00000000	      0.00000000	      0.00000000	      0.00000000	      0.00000000	      0.00000000	      0.00000000	      0.00000000	      0.00000000	      0.00000000	      0.00000000	      0.00000000	      0.00000000
      1.18000000	      0.32785563	     -5.52918828	     84.75490310	      0.24378681	      0.91751045	      0.43942398	     -5.63349700	      3.14837066	      8.26965405	     -4.10750116	     -0.07168942	      8.93395272	      0.00000000	      0.00000000	     38.00015199	     -8.61726842	     -7.51261529	     42.34725035	      0.73909895	      2.80400282	      0.00000000	      0.00000000	     -3.41652431	     -0.13508477	      3.01398907	      0.00000000	      0.00000000	      0.00000000	      0.00000000	      0.00000000	      0.00000000	      0.00000000	      0.00000000	      0.00000000	      0.00000000	      0.00000000	      0.00000000	      0.00000000	      0.00000000
      1.19000000	      0.49337755	     -5.65870029	     84.41829605	      0.24387585	      0.91498591	      0.42689206	     -6.81409317	      3.14348462	      8.74589034	     -4.84144212	     -0.08449911	      9.40718245	      0.00000000	      0.00000000	     38.11058746	     -8.74467968	     -7.36725766	     38.08650194	      0.66473486	      1.90006469	      0.00000000	      0.00000000	     -3.38544767	      0.06284316	      3.39057605	      0.00000000	      0.00000000	      0.00000000	      0.00000000	      0.00000000	      0.00000000	      0.00000000	      0.00000000	      0.00000000	      0.00000000	      0.00000000	      0.00000000	      0.00000000	      0.00000000
      1.20000000	      0.60754505	     -5.62978453	     84.08025906	      0.24388199	      0.91248909	      0.41412949	     -8.18072852	      3.05202585	      9.12956277	     -5.59359399	     -0.09762663	      9.81537207	      0.00000000	      0.00000000	     37.88314333	     -8.78863353	     -7.22349605	     33.63458797	      0.58703430	      1.10777887	      0.00000000	      0.00000000	     -3.53426457	      0.18046592	      3.81357407	      0.00000000	      0.00000000	      0.00000000	      0.00000000	      0.00000000	      0.00000000	      0.00000000	      0.00000000	      0.00000000	      0.00000000	      0.00000000	      0.00000000	      0.00000000	      0.00000000
      1.21000000	      0.76148002	     -5.66167174	     83.79878005	      0.24371919	      0.90968135	      0.40126172	     -9.46836201	      2.99408031	      9.51914817	     -6.28075064	     -0.10961978	     10.28847243	     -0.00000000	      0.00000000	     37.62433291	     -8.81202530	     -6.89024480	     29.08695531	      0.50766314	      0.30225880	     -0.00000000	     -0.00000000	     -3.60567784	      0.34860586	      4.13282094	     -0.00000000	      0.00000000	     -0.00000000	      0.00000000	      0.00000000	     -0.00000000	      0.00000000	      0.00000000	     -0.00000000	      0.00000000	      0.00000000	      0.00000000	     -0.00000000	     -0.00000000
      1.22000000	      0.92872291	     -5.70302925	     83.53876602	      0.24350005	      0.90662694	      0.38824838	    -10.72341570	      2.94740735	      9.85695719	     -6.88662020	     -0.12019420	     10.81288412	      0.00000000	      0.00000000	     37.28330385	     -8.83190699	     -6.44331437	     24.52222492	      0.42799356	     -0.44048027	      0.00000000	      0.00000000	     -3.66265689	      0.53050182	      4.40103753	      0.00000000	      0.00000000	      0.00000000	      0.00000000	      0.00000000	      0.00000000	      0.00000000	      0.00000000	      0.00000000	      0.00000000	      0.00000000	      0.00000000	      0.00000000	      0.00000000
      1.23000000	      1.13761197	     -5.82818082	     83.33554172	      0.24316340	      0.90322022	      0.37509001	    -11.85860572	      2.95559178	     10.17632575	     -7.38498240	     -0.12889226	     11.44928336	      0.00000000	      0.00000000	     36.98302958	     -8.86429208	     -5.76857125	     20.06085997	      0.35012806	     -1.04714804	      0.00000000	      0.00000000	     -3.60979763	      0.77479402	      4.58267639	      0.00000000	      0.00000000	      0.00000000	      0.00000000	      0.00000000	      0.00000000	      0.00000000	      0.00000000	      0.00000000	      0.00000000	      0.00000000	      0.00000000	      0.00000000	      0.00000000
      1.24000000	      1.31638918	     -5.84650119	     83.10618669	      0.24286511	      0.89983367	      0.36170620	    -13.06256622	      2.91683597	     10.43228517	     -7.77131665	     -0.13563506	     12.08983228	     -0.00000000	      0.00000000	     36.47240097	     -8.88359079	     -5.00620745	     15.73828234	      0.27468485	     -1.45373364	      0.00000000	     -0.00000000	     -3.67234544	      0.94242179	      4.74192962	      0.00000000	      0.00000000	      0.00000000	      0.00000000	      0.00000000	     -0.00000000	      0.00000000	     -0.00000000	     -0.00000000	     -0.00000000	      0.00000000	      0.00000000	      0.00000000	      0.00000000
      1.25000000	      1.62013666	     -6.02510781	     82.93554970	      0.24251822	      0.89604167	      0.34830113	    -14.03111843	      3.04140253	     10.75937833	     -7.99748367	     -0.13958242	     12.77716195	      0.00000000	      0.00000000	     36.18652966	     -9.03734364	     -3.94241001	     11.84498228	      0.20673394	     -1.50932025	      0.00000000	      0.00000000	     -3.55754610	      1.25523133	      4.99130446	      0.00000000	      0.00000000	      0.00000000	      0.00000000	      0.00000000	      0.00000000	      0.00000000	      0.00000000	      0.00000000	      0.00000000	      0.00000000	      0.00000000	      0.00000000	      0.00000000
